<svg width="1444" height="1024" viewBox="0 0 1444 1024" fill="none" xmlns="http://www.w3.org/2000/svg">
<g filter="url(#filter0_f_1_15)">
<path fill-rule="evenodd" clip-rule="evenodd" d="M1023 5.94602C1144.01 3.48272 1134.06 215.601 1222.67 300.278C1318.99 392.324 1513.18 374.394 1545.59 505.355C1578.39 637.896 1455.3 756.021 1358.78 850.233C1265.26 941.524 1145.79 1056.17 1023 1015.47C901.829 975.305 943.97 771.374 851.076 681.937C750.692 585.289 500.708 646.461 493.163 505.355C485.778 367.249 731.876 401.769 831.094 308.249C920.8 223.695 901.268 8.42411 1023 5.94602Z" fill="#7A187C"/>
<path fill-rule="evenodd" clip-rule="evenodd" d="M1056.73 -459.472C1190.58 -515.145 1328.61 -372.304 1434.02 -285.394C1538.1 -199.574 1637.96 -100.423 1638 19.8013C1638.04 140.047 1561.27 262.74 1434.21 325.152C1322.17 380.187 1186.47 320.444 1056.73 305.321C956.899 293.683 829.683 316.446 774.342 248.232C719.792 180.994 788.175 94.4765 825.091 19.8013C846.187 -22.8731 914.988 -35.3185 935.676 -78.1234C997.089 -205.19 906.737 -397.087 1056.73 -459.472Z" fill="#BA04FA"/>
<path fill-rule="evenodd" clip-rule="evenodd" d="M222.696 80.1952C409.959 20.6382 477.643 297.872 586.305 427.492C659.741 515.091 742.235 598.312 743.938 701.969C745.662 806.916 711.875 925.983 595.438 983.341C486.858 1036.83 352.34 957.391 222.696 958.744C89.088 960.139 -70.79 1065.99 -160.5 991.233C-251.343 915.535 -140.222 795.368 -85.4532 701.969C-54.8675 649.811 48.177 643.641 74.6538 590.217C158.636 420.761 1.82009 150.442 222.696 80.1952Z" fill="#5900EA"/>
<path fill-rule="evenodd" clip-rule="evenodd" d="M379.572 -328.641C552.018 -307.678 600.377 -133.977 680.088 -12.5521C728.631 61.3946 738.717 139.394 741.368 222.492C744.128 308.981 787.577 421.658 695.471 469.568C601.769 518.308 488.245 387.834 379.572 410.685C169.216 454.916 -33.5688 784.926 -168.634 651.263C-309.321 512.036 157.309 398.167 189.405 222.492C212.284 97.2659 -73.6903 23.0678 -31.5501 -99.061C14.0588 -231.242 206.602 -349.667 379.572 -328.641Z" fill="#640094"/>
</g>
<defs>
<filter id="filter0_f_1_15" x="-595" y="-872" width="2633" height="2295.92" filterUnits="userSpaceOnUse" color-interpolation-filters="sRGB">
<feFlood flood-opacity="0" result="BackgroundImageFix"/>
<feBlend mode="normal" in="SourceGraphic" in2="BackgroundImageFix" result="shape"/>
<feGaussianBlur stdDeviation="200" result="effect1_foregroundBlur_1_15"/>
</filter>
</defs>
</svg>
