<svg width="2557" height="2305" viewBox="0 0 2557 2305" fill="none" xmlns="http://www.w3.org/2000/svg">
<g filter="url(#filter0_f_1_14)">
<g filter="url(#filter1_f_1_14)">
<path fill-rule="evenodd" clip-rule="evenodd" d="M922.802 1144.17C1026.53 1125.24 1141.63 1121.07 1224.11 1186.69C1313.11 1257.51 1373.28 1375.58 1354.59 1487.7C1337.21 1591.96 1214.14 1629.3 1138.07 1702.76C1064.5 1773.81 1024.86 1912.19 922.802 1904.71C820.186 1897.18 811.356 1744.37 736.983 1673.34C658.8 1598.67 492.319 1595.58 486.179 1487.7C480.099 1380.88 630.44 1345.88 714.578 1279.68C782.231 1226.46 838.089 1159.63 922.802 1144.17Z" fill="#7700C0"/>
<path fill-rule="evenodd" clip-rule="evenodd" d="M1635.09 963.803C1765.83 933.367 1914.78 1026.88 1977.06 1145.73C2033.1 1252.68 1924.56 1367.73 1909.53 1487.52C1898.06 1578.89 1956.6 1679.82 1900.83 1753.11C1841.62 1830.92 1731.86 1833.99 1635.09 1848.2C1512.6 1866.18 1373.52 1923.11 1277.83 1844.59C1179.65 1764.02 1164.33 1610.6 1195.55 1487.52C1222.03 1383.12 1353.08 1357.38 1422.33 1274.87C1506.29 1174.83 1507.86 993.423 1635.09 963.803Z" fill="#8A1C5E"/>
<path fill-rule="evenodd" clip-rule="evenodd" d="M1667.9 432.366C1768.45 446.237 1843.55 520.002 1922.1 589.613C2015.04 671.983 2157.45 735.502 2157 865.826C2156.55 996.114 2012.46 1056.77 1920.19 1139.96C1841.43 1210.97 1770.1 1312.44 1667.9 1306.77C1567.86 1301.22 1515.13 1185.49 1440.12 1113.34C1356.01 1032.44 1229.42 985.946 1209.47 865.826C1187.74 735.002 1247.49 596.543 1339.78 509.279C1427.53 426.311 1552.51 416.447 1667.9 432.366Z" fill="#9F0699"/>
<path fill-rule="evenodd" clip-rule="evenodd" d="M898.392 400.013C1039.25 401.846 1023.09 600.228 1103.45 698.666C1157.54 764.925 1266.76 793.902 1284.64 873.129C1305.16 964.016 1284.48 1071.27 1200.93 1130.53C1120.25 1187.77 1001.49 1129.98 898.392 1147.14C739.449 1173.58 572.665 1344.41 448.771 1255.67C328.263 1169.35 462.442 999.218 515.841 873.129C547.792 797.685 633.541 759.312 686.962 693.244C766.373 595.032 758.297 398.189 898.392 400.013Z" fill="#603E99"/>
</g>
</g>
<defs>
<filter id="filter0_f_1_14" x="0" y="0" width="2557" height="2305" filterUnits="userSpaceOnUse" color-interpolation-filters="sRGB">
<feFlood flood-opacity="0" result="BackgroundImageFix"/>
<feBlend mode="normal" in="SourceGraphic" in2="BackgroundImageFix" result="shape"/>
<feGaussianBlur stdDeviation="200" result="effect1_foregroundBlur_1_14"/>
</filter>
<filter id="filter1_f_1_14" x="100" y="100" width="2357" height="2105" filterUnits="userSpaceOnUse" color-interpolation-filters="sRGB">
<feFlood flood-opacity="0" result="BackgroundImageFix"/>
<feBlend mode="normal" in="SourceGraphic" in2="BackgroundImageFix" result="shape"/>
<feGaussianBlur stdDeviation="150" result="effect1_foregroundBlur_1_14"/>
</filter>
</defs>
</svg>
