<svg width="1464" height="1401" viewBox="0 0 1464 1401" fill="none" xmlns="http://www.w3.org/2000/svg">
<g filter="url(#filter0_f_1_6)">
<path fill-rule="evenodd" clip-rule="evenodd" d="M547.611 406.849C602.03 409.929 615.147 489.912 646.431 534.546C665.761 562.127 668.093 603.583 697.28 620.39C750.501 651.038 862.015 605.03 873.573 665.348C885.38 726.962 778.158 743.193 728.043 780.929C705.312 798.045 666.076 800.46 657.931 827.724C642.543 879.233 705.652 949.842 666.559 986.743C634.401 1017.1 589.397 946.328 547.611 931.856C520.056 922.313 491.699 918.888 462.669 916.13C418.849 911.967 373.878 926.021 332.357 911.406C279.201 892.697 171.596 873.388 192.087 820.893C222.336 743.4 357.404 771.883 411.491 708.678C435.612 680.491 371.311 640.709 377.568 604.142C383.51 569.418 420.255 549.732 443.254 523.047C477.674 483.112 494.974 403.87 547.611 406.849Z" fill="#78038B"/>
</g>
<g filter="url(#filter1_f_1_6)">
<path fill-rule="evenodd" clip-rule="evenodd" d="M770.539 488.796C842.507 477.68 924.517 420.669 979.748 472.326C1035.03 524.034 1006.82 622.167 997.48 701.052C989.736 766.475 974.408 830.648 931.808 877.367C889.143 924.158 830.955 948.431 770.539 949.936C708.612 951.479 652.195 924.889 601.749 885.59C537.895 835.845 448.328 786.722 451.061 701.052C453.791 615.511 546.224 573.406 613.128 528.956C660.995 497.154 715.078 497.363 770.539 488.796Z" fill="#E69EFF"/>
<path fill-rule="evenodd" clip-rule="evenodd" d="M770.539 488.796C842.507 477.68 924.517 420.669 979.748 472.326C1035.03 524.034 1006.82 622.167 997.48 701.052C989.736 766.475 974.408 830.648 931.808 877.367C889.143 924.158 830.955 948.431 770.539 949.936C708.612 951.479 652.195 924.889 601.749 885.59C537.895 835.845 448.328 786.722 451.061 701.052C453.791 615.511 546.224 573.406 613.128 528.956C660.995 497.154 715.078 497.363 770.539 488.796Z" stroke="black"/>
</g>
<defs>
<filter id="filter0_f_1_6" x="39.5258" y="256.767" width="984.948" height="887.465" filterUnits="userSpaceOnUse" color-interpolation-filters="sRGB">
<feFlood flood-opacity="0" result="BackgroundImageFix"/>
<feBlend mode="normal" in="SourceGraphic" in2="BackgroundImageFix" result="shape"/>
<feGaussianBlur stdDeviation="75" result="effect1_foregroundBlur_1_6"/>
</filter>
<filter id="filter1_f_1_6" x="0.499985" y="0.500275" width="1463" height="1400" filterUnits="userSpaceOnUse" color-interpolation-filters="sRGB">
<feFlood flood-opacity="0" result="BackgroundImageFix"/>
<feBlend mode="normal" in="SourceGraphic" in2="BackgroundImageFix" result="shape"/>
<feGaussianBlur stdDeviation="225" result="effect1_foregroundBlur_1_6"/>
</filter>
</defs>
</svg>
